<svg width="51" height="18" viewBox="0 0 51 18" fill="none" xmlns="http://www.w3.org/2000/svg">
<g clip-path="url(#clip0_9897_34345)">
<path d="M5.57895 11.3098C6.77692 11.3098 7.73226 10.3169 7.73226 8.84484C7.73226 7.77745 7.09536 6.58165 5.57895 6.58165C4.32499 6.58165 3.66943 7.66624 3.66943 8.97324C3.66943 10.4637 4.56761 11.3098 5.57895 11.3098ZM10.9891 12.7257C10.9891 16.6639 9.04338 17.9331 5.11119 17.9331C3.84347 17.9365 2.58413 17.7311 1.38547 17.3255L1.55461 14.7126C2.58344 15.2102 3.44546 15.5048 4.84873 15.5048C6.79558 15.5048 7.84424 14.6025 7.84424 12.7257V12.2098H7.80691C7.00204 13.3322 5.87873 13.8481 4.53028 13.8481C1.85323 13.8493 0.1875 11.8613 0.1875 9.02828C0.1875 6.17579 1.55461 4.04102 4.58628 4.04102C6.02804 4.04102 7.18868 4.8149 7.90023 5.99006H7.93756V4.26229H10.9891V12.7257Z" fill="#0070D1"/>
<path d="M24.4992 13.753H28.2156L31.7115 4.30469H28.4641L26.4904 11.0346H26.4554L24.4992 4.30469H20.9951L24.4992 13.753Z" fill="#0070D1"/>
<path d="M18.8432 9.01223C18.8432 7.57682 18.2075 6.3065 16.6525 6.3065C15.0976 6.3065 14.4631 7.57682 14.4631 9.01223C14.4631 10.4293 15.0988 11.6985 16.6525 11.6985C18.2063 11.6985 18.8432 10.4339 18.8432 9.01223ZM10.98 9.01223C10.98 5.82841 13.4296 3.98828 16.6525 3.98828C19.8755 3.98828 22.3251 5.82268 22.3251 9.01223C22.3251 12.1777 19.8755 14.0167 16.6525 14.0167C13.4296 14.0167 10.98 12.1823 10.98 9.01223Z" fill="#0070D1"/>
<path d="M32.3074 12.4459C32.3074 12.7568 32.2136 13.0607 32.0378 13.3191C31.8621 13.5776 31.6123 13.7791 31.3201 13.8981C31.0279 14.017 30.7063 14.0482 30.3961 13.9875C30.0859 13.9269 29.8009 13.7772 29.5773 13.5573C29.3536 13.3375 29.2013 13.0574 29.1396 12.7525C29.0779 12.4476 29.1096 12.1316 29.2306 11.8444C29.3517 11.5571 29.5566 11.3116 29.8196 11.1389C30.0826 10.9662 30.3918 10.874 30.7081 10.874C31.1323 10.874 31.539 11.0396 31.8389 11.3344C32.1389 11.6292 32.3074 12.029 32.3074 12.4459Z" fill="#0070D1"/>
<path d="M38.044 6.53503C36.8075 6.53503 35.984 7.60242 35.984 9.03784C35.984 10.4366 36.9172 11.4856 38.044 11.4856C39.3178 11.4856 40.0853 10.4366 40.0853 8.90943C40.0807 7.63911 39.3551 6.53503 38.044 6.53503ZM32.6152 0H35.998V5.44815H36.0353C36.8962 4.38076 38.0393 3.9944 39.3878 3.9944C42.0847 3.9944 43.5638 6.51669 43.5638 8.8349C43.5638 11.6702 42.0089 14.0262 39.1067 14.0262C37.5518 14.0262 36.1846 13.1606 35.7542 12.0932H35.7169V13.805H32.6152V0Z" fill="#0070D1"/>
<path d="M50.5359 6.86612C50.1628 6.77207 49.7775 6.73343 49.3927 6.75147C47.8203 6.75147 46.9431 7.87389 46.9431 9.75185V13.8013H43.572V4.21541H46.6422V5.98217H46.6795C47.2627 4.76688 48.1038 3.99414 49.5642 3.99414C49.9474 4.00232 50.3292 4.04066 50.7062 4.10879L50.5359 6.86612Z" fill="#0070D1"/>
</g>
<defs>
<clipPath id="clip0_9897_34345">
<rect width="50.625" height="18" fill="white" transform="translate(0.1875)"/>
</clipPath>
</defs>
</svg>
