<svg width="165" height="67" viewBox="0 0 165 67" fill="none" xmlns="http://www.w3.org/2000/svg">
<path d="M77.187 17.4946V13.3762C77.187 8.98278 80.2624 6.0625 84.8632 6.0625C87.1709 6.0625 89.6075 6.86648 90.7936 8.86866C91.0393 9.34192 91.0791 9.90292 90.9029 10.409C90.7266 10.9151 90.3514 11.3176 89.8725 11.514C89.0595 11.8891 88.1118 11.7263 87.4557 11.0991C86.4652 10.1109 85.4574 9.85678 84.8632 9.85678C82.7336 9.85678 81.3049 11.3532 81.3049 13.607V17.2638C81.3049 19.5202 82.7336 21.014 84.8854 21.014C85.9256 21.0102 86.9123 20.5309 87.5869 19.7017C88.1367 19.0818 88.9266 18.8069 89.9368 19.2426C91.2121 19.7951 91.3433 20.9907 91.1006 21.5197C90.0483 23.8202 87.5226 24.8109 84.8854 24.8109C80.2624 24.8109 77.187 21.888 77.187 17.4946Z" fill="white"/>
<path fill-rule="evenodd" clip-rule="evenodd" d="M92.3638 16.9838V19.0586C92.3638 22.5183 94.8226 24.811 98.47 24.811C102.117 24.811 104.554 22.5106 104.554 19.0586V16.9838C104.554 13.5319 102.137 11.2314 98.47 11.2314C94.8028 11.2314 92.3638 13.5319 92.3638 16.9838ZM100.599 17.1031V18.9445C100.599 20.3242 99.7649 21.2449 98.4698 21.2449C97.1748 21.2449 96.318 20.3242 96.318 18.9445V17.1031C96.318 15.7234 97.1946 14.8027 98.4698 14.8027C99.7451 14.8027 100.599 15.7234 100.599 17.1031Z" fill="white"/>
<path d="M117.668 16.1378V22.6942C117.668 24.0506 116.987 24.8104 115.687 24.8104C114.387 24.8104 113.706 24.0506 113.706 22.6942V16.8277C113.706 15.6087 112.963 14.8022 111.861 14.8022C110.759 14.8022 110.017 15.6087 110.017 16.8277V22.6942C110.017 24.0506 109.336 24.8104 108.036 24.8104C106.736 24.8104 106.055 24.0506 106.055 22.6942V13.3576C106.055 12.0012 106.694 11.2413 107.857 11.2413C108.868 11.2413 109.482 11.7937 109.658 12.7974C110.548 11.7693 111.824 11.2008 113.149 11.2413C115.865 11.2361 117.668 13.1812 117.668 16.1378Z" fill="white"/>
<path fill-rule="evenodd" clip-rule="evenodd" d="M130.977 17.6556V16.8957C130.977 13.493 128.612 11.2471 125.054 11.2471C121.496 11.2471 119.124 13.5034 119.124 16.9061V19.1624C119.124 22.5651 121.54 24.8214 125.143 24.8214C127.154 24.8214 129.283 24.129 130.095 22.7959C130.514 22.0957 130.229 20.9001 128.823 20.4618C128.224 20.2433 127.559 20.3845 127.089 20.83C126.322 21.4732 125.663 21.704 125.136 21.704C123.927 21.704 123.093 20.7626 123.071 19.3128H129.397C130.407 19.3128 130.977 18.7137 130.977 17.6556ZM125.052 14.3462C126.176 14.3462 126.943 15.2203 127.033 16.5533H123.071C123.16 15.2177 123.927 14.3462 125.052 14.3462Z" fill="white"/>
<path d="M132.01 19.035V17.012C132.01 13.5368 134.471 11.2363 138.138 11.2363C139.916 11.2363 141.853 11.6746 142.662 13.3993C142.843 13.8303 142.841 14.3213 142.657 14.7507C142.473 15.1802 142.124 15.508 141.697 15.6531C140.664 15.998 139.983 15.7231 139.631 15.3937C139.238 14.9852 138.699 14.7679 138.146 14.7946C136.851 14.7946 135.972 15.7153 135.972 17.095V18.9364C135.972 20.3162 136.851 21.2368 138.168 21.2368C138.778 21.2317 139.361 20.9755 139.792 20.5236C140.122 20.202 140.738 19.8571 141.749 20.202C142.175 20.3268 142.537 20.6257 142.751 21.0319C142.966 21.438 143.016 21.9173 142.89 22.3624C142.452 24.1571 140.122 24.8029 138.168 24.8029C134.471 24.8107 132.01 22.518 132.01 19.035Z" fill="white"/>
<path d="M152.327 22.9695C152.327 24.0069 151.757 24.58 150.747 24.58H150.044C147.429 24.58 145.693 23.0239 145.693 20.669V14.6884H145.302C144.292 14.6884 143.72 14.1127 143.72 13.0779C143.72 12.0431 144.292 11.4673 145.302 11.4673H145.797V9.91121C145.797 8.55482 146.478 7.79492 147.731 7.79492C148.984 7.79492 149.663 8.55482 149.663 9.91121V11.4673H150.98C151.99 11.4673 152.562 12.0431 152.562 13.0779C152.562 14.1127 151.99 14.6884 150.98 14.6884H149.663V20.4434C149.642 20.6854 149.721 20.9251 149.881 21.1013C150.041 21.2775 150.265 21.3733 150.497 21.3641H150.75C151.757 21.3589 152.327 21.9347 152.327 22.9695Z" fill="white"/>
<path fill-rule="evenodd" clip-rule="evenodd" d="M165 17.6556V16.8957C165 13.493 162.623 11.2471 159.067 11.2471C155.511 11.2471 153.139 13.5034 153.139 16.9061V19.1624C153.139 22.5651 155.553 24.8214 159.156 24.8214C161.177 24.8214 163.306 24.129 164.121 22.7959C164.537 22.0957 164.252 20.9001 162.846 20.4618C162.247 20.2433 161.582 20.3845 161.112 20.83C160.345 21.4732 159.686 21.704 159.159 21.704C157.95 21.704 157.116 20.7626 157.094 19.3128H163.42C164.43 19.3128 165 18.7137 165 17.6556ZM159.074 14.3463C160.199 14.3463 160.966 15.2203 161.055 16.5533H157.093C157.188 15.2177 157.95 14.3463 159.074 14.3463Z" fill="white"/>
<path d="M77.7307 48.249C77.0802 47.0959 77.3618 45.5288 78.9443 44.7288C80.4128 43.9897 81.4298 44.8761 81.8837 45.2901C83.4104 46.7099 84.7963 47.0375 86.1216 47.0375C88.4687 47.0375 90.0513 46.0216 90.0513 44.5231V44.4342C90.0513 39.997 77.187 43.9897 77.187 35.0875V34.7014C77.187 30.3837 80.7186 27.5137 86.0609 27.5137C89.1144 27.5137 91.9979 28.5296 93.6921 30.6199C94.5975 31.7451 94.0611 33.4899 92.5343 34.1757C91.0076 34.8615 90.1314 34.1757 89.6217 33.6677C88.6491 32.629 87.3069 32.0611 85.9177 32.1006C83.7138 32.1006 82.2769 32.9566 82.2769 34.229V34.3179C82.2769 38.9328 95.2795 34.8513 95.2795 43.6341V44.0202C95.2795 48.5741 91.5465 51.6194 85.9784 51.6194C82.6774 51.6194 79.2283 50.9108 77.7307 48.249Z" fill="#50B047"/>
<path d="M97.2285 43.0728V30.2948C97.2285 28.4915 98.163 27.501 99.8863 27.501C101.61 27.501 102.556 28.4788 102.556 30.2948V42.7782C102.556 45.1733 104.083 46.7404 106.343 46.7404C108.602 46.7404 110.102 45.1733 110.102 42.7782V30.2948C110.102 28.4915 111.035 27.501 112.76 27.501C114.486 27.501 115.416 28.4788 115.416 30.2948V43.0728C115.416 48.2185 111.799 51.6194 106.343 51.6194C100.886 51.6194 97.2285 48.2185 97.2285 43.0728Z" fill="#50B047"/>
<path d="M118.18 48.249C117.53 47.0959 117.814 45.5288 119.394 44.7288C120.862 43.9897 121.882 44.8761 122.333 45.2901C123.86 46.7099 125.246 47.0375 126.574 47.0375C128.918 47.0375 130.501 46.0216 130.501 44.5231V44.4342C130.501 39.997 117.637 43.9897 117.637 35.0875V34.7014C117.637 30.3837 121.168 27.5137 126.511 27.5137C129.564 27.5137 132.448 28.5296 134.144 30.6199C135.047 31.7451 134.511 33.4899 132.984 34.1757C131.457 34.8615 130.581 34.1757 130.071 33.6677C129.099 32.6287 127.757 32.0608 126.367 32.1006C124.164 32.1006 122.727 32.9566 122.727 34.229V34.3179C122.727 38.9328 135.729 34.8513 135.729 43.6341V44.0202C135.729 48.5741 131.999 51.6194 126.431 51.6194C123.127 51.6194 119.678 50.9108 118.18 48.249Z" fill="#50B047"/>
<path fill-rule="evenodd" clip-rule="evenodd" d="M52.6206 44.329C52.4875 44.329 52.3568 44.329 52.2261 44.329C46.6717 44.5613 42.1192 49.5351 42.1386 55.6242C42.0736 56.6834 41.8908 57.731 41.5941 58.7453C40.1718 63.3066 36.1231 66.3812 31.5695 66.3579C28.8079 66.383 26.1506 65.247 24.1853 63.2011C21.7917 60.7307 21.2206 58.439 20.8672 55.1572C20.8281 49.3582 16.4803 44.612 10.9854 44.3699C10.8233 44.3699 10.6611 44.3826 10.5014 44.3826C10.3416 44.3826 10.1504 44.3826 9.9786 44.3699H9.92294C4.35678 44.0461 0.000530256 39.1927 0 33.3146V33.3146C0.00133607 27.2011 4.7011 22.2454 10.499 22.244V22.244C14.0149 22.2435 17.2976 24.0993 19.2432 27.1872C19.5595 27.669 19.831 28.1818 20.054 28.7184C20.6505 30.0962 20.9718 31.5885 20.9979 33.1028C21.0294 33.3988 21.0608 33.7051 21.0947 34.0164C21.4122 39.2479 25.1614 43.5298 30.0817 44.2802C35.002 45.0306 39.7483 42.0444 41.4585 37.1222C41.8283 36.0222 42.0546 34.8744 42.1313 33.7102C42.1313 33.5647 42.1313 33.4192 42.1313 33.2712V33.2712C42.1344 27.2745 46.6622 22.369 52.3471 22.2032L52.3617 22.1904H52.7949L52.5916 22.2057H52.6351C58.3721 22.2976 62.9771 27.2276 62.9771 33.2776C62.9771 39.3276 58.3721 44.2576 52.6351 44.3494L52.6206 44.329Z" fill="#50B047"/>
<path fill-rule="evenodd" clip-rule="evenodd" d="M22.8045 4.93027C25.5845 0.535077 30.9219 -1.17719 35.5522 0.840725C40.1826 2.85864 42.8161 8.04464 41.8421 13.2269C40.8682 18.4091 36.5579 22.1441 31.5477 22.1474C28.763 22.1526 26.0911 20.9882 24.1224 18.9115C20.5764 15.1793 20.0246 9.32545 22.8045 4.93027Z" fill="#F49301"/>
<path d="M120.777 64.5836C120.922 64.7859 120.971 65.0034 120.922 65.2361C120.874 65.4688 120.728 65.6458 120.485 65.7672C120.413 65.8076 120.346 65.843 120.285 65.8734C120.237 65.8936 120.182 65.9189 120.121 65.9493C120.073 65.9695 120.006 65.9948 119.921 66.0251C119.848 66.0454 119.751 66.0757 119.63 66.1162C119.375 66.1971 119.101 66.2527 118.81 66.2831C118.531 66.3236 118.24 66.3438 117.936 66.3438C117.22 66.3438 116.564 66.2426 115.969 66.0403C115.314 65.8178 114.774 65.4789 114.349 65.0237C113.936 64.6089 113.62 64.0677 113.402 63.4C113.305 63.0966 113.232 62.7678 113.183 62.4137C113.135 62.0496 113.11 61.6601 113.11 61.2453C113.11 60.8205 113.135 60.431 113.183 60.0769C113.232 59.7128 113.305 59.3789 113.402 59.0755C113.62 58.4078 113.936 57.8666 114.349 57.4519C114.774 56.9966 115.314 56.6577 115.969 56.4352C116.564 56.2329 117.22 56.1317 117.936 56.1317C118.24 56.1317 118.531 56.1519 118.81 56.1924C119.101 56.2228 119.375 56.2784 119.63 56.3593C119.751 56.3998 119.848 56.4352 119.921 56.4655C120.006 56.4858 120.073 56.5111 120.121 56.5414C120.182 56.5616 120.237 56.5869 120.285 56.6173C120.346 56.6375 120.413 56.6679 120.485 56.7083C120.728 56.8297 120.874 57.0067 120.922 57.2394C120.971 57.4721 120.922 57.6896 120.777 57.8919L120.686 58.0133C120.528 58.2257 120.315 58.3623 120.048 58.423C119.745 58.4736 119.478 58.4382 119.247 58.3168C119.004 58.2055 118.768 58.1347 118.537 58.1043C118.306 58.0639 118.106 58.0436 117.936 58.0436C117.73 58.0436 117.535 58.0588 117.353 58.0892C117.171 58.1094 117.001 58.1448 116.843 58.1954C116.576 58.2864 116.346 58.428 116.151 58.6202C115.921 58.8529 115.745 59.1665 115.623 59.561C115.478 60.0061 115.405 60.5676 115.405 61.2453C115.405 61.9231 115.478 62.4795 115.623 62.9145C115.745 63.309 115.921 63.6226 116.151 63.8553C116.346 64.0475 116.576 64.1891 116.843 64.2801C117.001 64.3307 117.171 64.3712 117.353 64.4015C117.535 64.4218 117.73 64.4319 117.936 64.4319C118.106 64.4319 118.306 64.4167 118.537 64.3863C118.768 64.3459 119.004 64.27 119.247 64.1587C119.478 64.0373 119.745 64.0019 120.048 64.0525C120.315 64.1132 120.528 64.2498 120.686 64.4622L120.777 64.5836Z" fill="#F49301"/>
<path d="M123.011 58.4685C123.303 58.4685 123.551 58.5545 123.758 58.7265C123.964 58.8984 124.067 59.1058 124.067 59.3486V65.3878C124.067 65.6306 123.964 65.838 123.758 66.01C123.551 66.1819 123.303 66.2679 123.011 66.2679H122.829C122.538 66.2679 122.289 66.1819 122.083 66.01C121.876 65.838 121.773 65.6306 121.773 65.3878V59.3486C121.773 59.1058 121.876 58.8984 122.083 58.7265C122.289 58.5545 122.538 58.4685 122.829 58.4685H123.011ZM122.92 58.0285C122.568 58.0285 122.271 57.9273 122.028 57.725C121.797 57.5227 121.682 57.2698 121.682 56.9663C121.682 56.6628 121.797 56.4099 122.028 56.2076C122.271 56.0053 122.568 55.9041 122.92 55.9041C123.272 55.9041 123.564 56.0053 123.794 56.2076C124.037 56.4099 124.158 56.6628 124.158 56.9663C124.158 57.2698 124.037 57.5227 123.794 57.725C123.564 57.9273 123.272 58.0285 122.92 58.0285Z" fill="#F49301"/>
<path d="M125.387 60.7143C125.545 60.2186 125.787 59.7937 126.115 59.4396C126.467 59.0755 126.898 58.8074 127.408 58.6354C127.894 58.4736 128.404 58.3926 128.938 58.3926C129.12 58.3926 129.296 58.4028 129.466 58.423C129.636 58.4432 129.806 58.4685 129.976 58.4989V56.5111C129.976 56.2582 130.091 56.0457 130.322 55.8738C130.54 55.6917 130.807 55.6158 131.123 55.6462L131.305 55.6613C131.584 55.6816 131.815 55.7726 131.997 55.9345C132.179 56.0963 132.27 56.2936 132.27 56.5262V65.4334C132.27 65.6761 132.167 65.8835 131.961 66.0555C131.754 66.2275 131.505 66.3134 131.214 66.3134H131.05C130.868 66.3134 130.722 66.2882 130.613 66.2376C130.516 66.187 130.455 66.1516 130.431 66.1314C130.407 66.1415 130.358 66.1566 130.285 66.1769C130.212 66.187 130.14 66.2022 130.067 66.2224C129.994 66.2325 129.927 66.2477 129.866 66.2679C129.806 66.278 129.775 66.2831 129.775 66.2831C129.496 66.3337 129.217 66.359 128.938 66.359C128.404 66.359 127.894 66.278 127.408 66.1162C126.898 65.9442 126.467 65.6761 126.115 65.312C125.787 64.9579 125.545 64.533 125.387 64.0373C125.241 63.572 125.168 63.0207 125.168 62.3834C125.168 61.7461 125.241 61.1897 125.387 60.7143ZM127.882 64.098C127.894 64.1183 127.918 64.1486 127.954 64.1891C128.003 64.2296 128.064 64.27 128.137 64.3105C128.221 64.3509 128.325 64.3863 128.446 64.4167C128.58 64.4369 128.744 64.447 128.938 64.447C129.302 64.447 129.551 64.4066 129.684 64.3257C129.83 64.2346 129.927 64.1638 129.976 64.1132V60.6384C129.927 60.5878 129.83 60.522 129.684 60.4411C129.551 60.3501 129.302 60.3046 128.938 60.3046C128.549 60.3046 128.282 60.3551 128.137 60.4563C128.003 60.5473 127.918 60.6131 127.882 60.6536C127.784 60.7648 127.687 60.952 127.59 61.215C127.505 61.478 127.463 61.8675 127.463 62.3834C127.463 62.8993 127.505 63.2888 127.59 63.5518C127.687 63.8047 127.784 63.9868 127.882 64.098Z" fill="#F49301"/>
<path d="M136.837 64.4319C137.128 64.4319 137.347 64.4015 137.492 64.3408C137.638 64.2801 137.741 64.2245 137.802 64.1739V60.5625C137.741 60.5119 137.638 60.4563 137.492 60.3956C137.347 60.3349 137.128 60.3046 136.837 60.3046C136.448 60.3046 136.181 60.3501 136.036 60.4411C135.902 60.5322 135.817 60.5979 135.781 60.6384C135.684 60.7497 135.587 60.9368 135.489 61.1998C135.404 61.4628 135.362 61.8523 135.362 62.3682C135.362 62.8841 135.404 63.2736 135.489 63.5366C135.587 63.7996 135.684 63.9868 135.781 64.098C135.793 64.1183 135.817 64.1486 135.854 64.1891C135.902 64.2296 135.963 64.27 136.036 64.3105C136.121 64.3408 136.224 64.3712 136.345 64.4015C136.479 64.4218 136.643 64.4319 136.837 64.4319ZM140.224 65.1602C140.309 65.4131 140.266 65.6458 140.097 65.8582C139.914 66.0909 139.678 66.2224 139.386 66.2527L139.204 66.2831C138.901 66.3236 138.628 66.2629 138.385 66.101C138.373 66.1111 138.361 66.1162 138.348 66.1162C138.263 66.1465 138.178 66.1718 138.093 66.192C138.021 66.2022 137.936 66.2173 137.838 66.2376C137.523 66.3185 137.195 66.3539 136.855 66.3438C136.527 66.3438 136.2 66.3185 135.872 66.2679C135.775 66.2477 135.678 66.2275 135.58 66.2072C135.495 66.1769 135.404 66.1465 135.307 66.1162C134.797 65.9442 134.366 65.6761 134.014 65.312C133.687 64.9579 133.45 64.533 133.304 64.0373C133.219 63.7946 133.158 63.5366 133.122 63.2635C133.098 62.9903 133.086 62.6919 133.086 62.3682C133.086 62.0445 133.098 61.7461 133.122 61.4729C133.158 61.1998 133.219 60.9469 133.304 60.7143C133.377 60.4512 133.474 60.2135 133.596 60.0011C133.717 59.7886 133.857 59.5964 134.014 59.4245C134.063 59.384 134.105 59.3486 134.142 59.3182C134.178 59.2778 134.221 59.2373 134.269 59.1969C134.561 58.9541 134.907 58.7619 135.307 58.6202C135.756 58.4685 136.266 58.3926 136.837 58.3926H137.001C138.033 58.3926 138.81 58.6253 139.332 59.0906C139.854 59.556 140.115 60.1933 140.115 61.0026V64.265C140.115 64.3661 140.115 64.4622 140.115 64.5533C140.115 64.6342 140.121 64.7101 140.133 64.7809C140.145 64.8517 140.157 64.9174 140.169 64.9781C140.182 65.0388 140.2 65.0995 140.224 65.1602Z" fill="#F49301"/>
<path d="M141.57 60.7143C141.727 60.2186 141.97 59.7937 142.298 59.4396C142.65 59.0755 143.081 58.8074 143.591 58.6354C144.076 58.4736 144.586 58.3926 145.121 58.3926C145.303 58.3926 145.479 58.4028 145.649 58.423C145.819 58.4432 145.989 58.4685 146.158 58.4989V56.5111C146.158 56.2582 146.274 56.0457 146.504 55.8738C146.723 55.6917 146.99 55.6158 147.306 55.6462L147.488 55.6613C147.767 55.6816 147.998 55.7726 148.18 55.9345C148.362 56.0963 148.453 56.2936 148.453 56.5262V65.4334C148.453 65.6761 148.35 65.8835 148.143 66.0555C147.937 66.2275 147.688 66.3134 147.397 66.3134H147.233C147.051 66.3134 146.905 66.2882 146.796 66.2376C146.699 66.187 146.638 66.1516 146.614 66.1314C146.589 66.1415 146.541 66.1566 146.468 66.1769C146.395 66.187 146.322 66.2022 146.25 66.2224C146.177 66.2325 146.11 66.2477 146.049 66.2679C145.989 66.278 145.958 66.2831 145.958 66.2831C145.679 66.3337 145.4 66.359 145.121 66.359C144.586 66.359 144.076 66.278 143.591 66.1162C143.081 65.9442 142.65 65.6761 142.298 65.312C141.97 64.9579 141.727 64.533 141.57 64.0373C141.424 63.572 141.351 63.0207 141.351 62.3834C141.351 61.7461 141.424 61.1897 141.57 60.7143ZM144.064 64.098C144.076 64.1183 144.101 64.1486 144.137 64.1891C144.186 64.2296 144.246 64.27 144.319 64.3105C144.404 64.3509 144.507 64.3863 144.629 64.4167C144.762 64.4369 144.926 64.447 145.121 64.447C145.485 64.447 145.734 64.4066 145.867 64.3257C146.013 64.2346 146.11 64.1638 146.158 64.1132V60.6384C146.11 60.5878 146.013 60.522 145.867 60.4411C145.734 60.3501 145.485 60.3046 145.121 60.3046C144.732 60.3046 144.465 60.3551 144.319 60.4563C144.186 60.5473 144.101 60.6131 144.064 60.6536C143.967 60.7648 143.87 60.952 143.773 61.215C143.688 61.478 143.646 61.8675 143.646 62.3834C143.646 62.8993 143.688 63.2888 143.773 63.5518C143.87 63.8047 143.967 63.9868 144.064 64.098Z" fill="#F49301"/>
<path d="M153.02 64.4319C153.311 64.4319 153.53 64.4015 153.675 64.3408C153.821 64.2801 153.924 64.2245 153.985 64.1739V60.5625C153.924 60.5119 153.821 60.4563 153.675 60.3956C153.53 60.3349 153.311 60.3046 153.02 60.3046C152.631 60.3046 152.364 60.3501 152.218 60.4411C152.085 60.5322 152 60.5979 151.964 60.6384C151.866 60.7497 151.769 60.9368 151.672 61.1998C151.587 61.4628 151.545 61.8523 151.545 62.3682C151.545 62.8841 151.587 63.2736 151.672 63.5366C151.769 63.7996 151.866 63.9868 151.964 64.098C151.976 64.1183 152 64.1486 152.036 64.1891C152.085 64.2296 152.146 64.27 152.218 64.3105C152.303 64.3408 152.407 64.3712 152.528 64.4015C152.662 64.4218 152.825 64.4319 153.02 64.4319ZM156.407 65.1602C156.492 65.4131 156.449 65.6458 156.279 65.8582C156.097 66.0909 155.86 66.2224 155.569 66.2527L155.387 66.2831C155.084 66.3236 154.81 66.2629 154.568 66.101C154.555 66.1111 154.543 66.1162 154.531 66.1162C154.446 66.1465 154.361 66.1718 154.276 66.192C154.203 66.2022 154.118 66.2173 154.021 66.2376C153.706 66.3185 153.378 66.3539 153.038 66.3438C152.71 66.3438 152.382 66.3185 152.055 66.2679C151.957 66.2477 151.86 66.2275 151.763 66.2072C151.678 66.1769 151.587 66.1465 151.49 66.1162C150.98 65.9442 150.549 65.6761 150.197 65.312C149.869 64.9579 149.633 64.533 149.487 64.0373C149.402 63.7946 149.341 63.5366 149.305 63.2635C149.281 62.9903 149.268 62.6919 149.268 62.3682C149.268 62.0445 149.281 61.7461 149.305 61.4729C149.341 61.1998 149.402 60.9469 149.487 60.7143C149.56 60.4512 149.657 60.2135 149.778 60.0011C149.9 59.7886 150.039 59.5964 150.197 59.4245C150.246 59.384 150.288 59.3486 150.325 59.3182C150.361 59.2778 150.404 59.2373 150.452 59.1969C150.743 58.9541 151.089 58.7619 151.49 58.6202C151.939 58.4685 152.449 58.3926 153.02 58.3926H153.184C154.215 58.3926 154.992 58.6253 155.514 59.0906C156.037 59.556 156.298 60.1933 156.298 61.0026V64.265C156.298 64.3661 156.298 64.4622 156.298 64.5533C156.298 64.6342 156.304 64.7101 156.316 64.7809C156.328 64.8517 156.34 64.9174 156.352 64.9781C156.364 65.0388 156.382 65.0995 156.407 65.1602ZM155.332 56.6325C155.308 56.6729 155.296 56.7033 155.296 56.7235C155.126 57.1686 154.914 57.4873 154.659 57.6795C154.404 57.8717 154.173 57.9779 153.967 57.9981C153.954 58.0082 153.93 58.0133 153.894 58.0133C153.736 58.0234 153.59 58.0082 153.457 57.9678C153.335 57.9273 153.214 57.8818 153.093 57.8312L152.947 57.7705C152.886 57.7503 152.795 57.7199 152.674 57.6795C152.564 57.639 152.449 57.5985 152.328 57.5581C152.206 57.5176 152.097 57.4822 152 57.4519C151.903 57.4215 151.842 57.4063 151.818 57.4063C151.721 57.4266 151.648 57.462 151.599 57.5125C151.551 57.5631 151.484 57.6441 151.399 57.7553C151.363 57.816 151.308 57.8717 151.235 57.9222C151.174 57.9627 151.083 57.988 150.962 57.9981C150.768 58.0183 150.628 57.9931 150.543 57.9222C150.458 57.8413 150.404 57.7402 150.379 57.6188V57.467C150.391 57.4468 150.397 57.4316 150.397 57.4215C150.397 57.4114 150.404 57.3962 150.416 57.376C150.586 56.9309 150.798 56.6122 151.053 56.42C151.308 56.2177 151.539 56.1064 151.745 56.0862H151.818C151.951 56.0761 152.115 56.1064 152.31 56.1772C152.504 56.2379 152.649 56.2835 152.747 56.3138C152.795 56.334 152.88 56.3644 153.001 56.4048C153.123 56.4453 153.244 56.4858 153.366 56.5262C153.487 56.5667 153.596 56.6021 153.693 56.6325C153.803 56.6628 153.87 56.678 153.894 56.678C153.991 56.6679 154.064 56.6375 154.112 56.5869C154.161 56.5364 154.228 56.4554 154.313 56.3442C154.385 56.2025 154.525 56.1216 154.731 56.1014C154.889 56.0811 155.023 56.1115 155.132 56.1924C155.241 56.2632 155.308 56.3593 155.332 56.4807V56.6325Z" fill="#F49301"/>
<path d="M162.705 62.3682C162.705 61.8523 162.663 61.4628 162.578 61.1998C162.493 60.9368 162.402 60.7497 162.305 60.6384C162.281 60.6182 162.244 60.5878 162.196 60.5473C162.159 60.5069 162.098 60.4715 162.013 60.4411C161.941 60.4007 161.844 60.3703 161.722 60.3501C161.601 60.3197 161.443 60.3046 161.249 60.3046C161.054 60.3046 160.897 60.3197 160.775 60.3501C160.654 60.3703 160.551 60.4007 160.466 60.4411C160.393 60.4715 160.332 60.5069 160.284 60.5473C160.247 60.5878 160.217 60.6182 160.192 60.6384C160.095 60.7497 160.004 60.9368 159.919 61.1998C159.834 61.4628 159.792 61.8523 159.792 62.3682C159.792 62.8841 159.834 63.2736 159.919 63.5366C160.004 63.7996 160.095 63.9868 160.192 64.098C160.217 64.1183 160.247 64.1486 160.284 64.1891C160.332 64.2296 160.393 64.27 160.466 64.3105C160.551 64.3408 160.654 64.3712 160.775 64.4015C160.897 64.4218 161.054 64.4319 161.249 64.4319C161.625 64.4319 161.88 64.3914 162.013 64.3105C162.159 64.2194 162.256 64.1486 162.305 64.098C162.402 63.9868 162.493 63.7996 162.578 63.5366C162.663 63.2736 162.705 62.8841 162.705 62.3682ZM164.781 60.7143C164.927 61.1897 165 61.741 165 62.3682C165 62.9954 164.927 63.5518 164.781 64.0373C164.696 64.2902 164.593 64.5229 164.472 64.7353C164.363 64.9478 164.223 65.14 164.053 65.312C163.701 65.6863 163.276 65.9543 162.778 66.1162C162.317 66.2679 161.807 66.3438 161.249 66.3438C160.702 66.3438 160.192 66.2679 159.719 66.1162C159.221 65.9442 158.796 65.6761 158.444 65.312C158.274 65.14 158.129 64.9478 158.007 64.7353C157.898 64.5229 157.801 64.2902 157.716 64.0373C157.57 63.5518 157.497 62.9954 157.497 62.3682C157.497 61.741 157.57 61.1897 157.716 60.7143C157.886 60.1983 158.129 59.7684 158.444 59.4245C158.796 59.0603 159.221 58.7922 159.719 58.6202C160.192 58.4685 160.702 58.3926 161.249 58.3926C161.807 58.3926 162.317 58.4685 162.778 58.6202C163.276 58.7821 163.701 59.0502 164.053 59.4245C164.369 59.7684 164.611 60.1983 164.781 60.7143Z" fill="#F49301"/>
</svg>
